:FULLY-SPECIFIED
:FORCE-ALL-JOINTS-BE-3DOF
:DEGREES
372
root 9.37676 17.0531 16.2214 6.52732 5.04303 -2.4856
lfemur -31.3509 6.06484 -17.896
ltibia 59.9413 -0 0
lfoot -12.6561 11.2259 -0.0264024
ltoes -4.71688 0 0
rfemur -14.4938 5.55405 27.8842
rtibia 30.94 -0 0
rfoot -15.6302 2.41096 0.128601
rtoes -14.3478 0 0
lowerback -5.98311 -0.338718 -0.414756
upperback -1.0362 -0.488645 2.59491
thorax 2.3156 -0.254205 2.87128
lowerneck -19.4178 -6.07629 -13.6777
upperneck 20.7254 -7.89823 14.1563
head 11.0673 -3.08921 6.26391
lclavicle 1.17623e-14 -1.82654e-14 -4.45341e-32
lhumerus -44.8007 -18.5292 97.6671
lradius 28.0291 -0 0
lwrist 10.7779 0 0
lhand -13.6876 -22.3247 -0.00278855
lfingers 7.12502 -0 0
lthumb 12.4298 7.27846 -0.00440331
rclavicle 1.17623e-14 -1.82654e-14 -4.45341e-32
rhumerus -36.2595 17.0331 -85.2152
rradius 41.9768 -0 0
rwrist -22.087 0 0
rhand -29.6831 -26.8495 -0.0110584
rfingers 7.12502 -0 0
rthumb -3.01142 -56.8057 -0.0107402
373
root 9.39359 17.0515 16.3688 6.55399 4.93598 -2.46858
lfemur -31.4957 6.00464 -17.9862
ltibia 59.4899 -0 0
lfoot -12.491 11.1605 -0.0311184
ltoes -4.53882 0 0
rfemur -14.0533 5.43623 27.7978
rtibia 30.9405 -0 0
rfoot -15.1115 2.51085 0.15162
rtoes -14.4215 0 0
lowerback -6.01273 -0.285062 -0.423559
upperback -1.06331 -0.415606 2.57082
thorax 2.30057 -0.217481 2.85723
lowerneck -19.4076 -6.08503 -13.6921
upperneck 20.7513 -7.9066 14.1423
head 11.0762 -3.09611 6.26067
lclavicle 1.18188e-14 -1.79428e-14 -5.24866e-32
lhumerus -44.8169 -18.2586 97.5133
lradius 27.8799 -0 0
lwrist 10.5034 0 0
lhand -13.5867 -22.336 -0.00328655
lfingers 7.12502 -0 0
lthumb 12.527 7.25994 -0.00518968
rclavicle 1.18188e-14 -1.79428e-14 -5.24866e-32
rhumerus -36.3486 16.8881 -85.2967
rradius 41.7753 -0 0
rwrist -21.9308 0 0
rhand -29.6219 -26.9234 -0.0130332
rfingers 7.12502 -0 0
rthumb -2.95231 -56.88 -0.0126583
374
root 9.41042 17.05 16.5162 6.58061 4.82893 -2.45161
lfemur -31.6404 5.94421 -18.0762
ltibia 59.0386 -0 0
lfoot -12.3259 11.0952 -0.035646
ltoes -4.36076 0 0
rfemur -13.6128 5.31906 27.7104
rtibia 30.941 -0 0
rfoot -14.5927 2.61094 0.173733
rtoes -14.4951 0 0
lowerback -6.04237 -0.23141 -0.43239
upperback -1.09045 -0.342578 2.5467
thorax 2.28554 -0.18076 2.84318
lowerneck -19.3973 -6.09376 -13.7066
upperneck 20.7772 -7.91496 14.1283
head 11.0852 -3.10301 6.25744
lclavicle 1.18753e-14 -1.76202e-14 -6.0121e-32
lhumerus -44.8338 -17.9881 97.3597
lradius 27.7306 -0 0
lwrist 10.229 0 0
lhand -13.4857 -22.3473 -0.00376464
lfingers 7.12502 -0 0
lthumb 12.6243 7.24141 -0.00594462
rclavicle 1.18753e-14 -1.76202e-14 -6.0121e-32
rhumerus -36.4373 16.743 -85.3779
rradius 41.5737 -0 0
rwrist -21.7747 0 0
rhand -29.5607 -26.9973 -0.0149291
rfingers 7.12502 -0 0
rthumb -2.8932 -56.9544 -0.0144996
375
root 9.42725 17.0484 16.6637 6.60721 4.72187 -2.43469
lfemur -31.785 5.88356 -18.1661
ltibia 58.5873 -0 0
lfoot -12.1608 11.0298 -0.0399854
ltoes -4.18269 0 0
rfemur -13.1721 5.20257 27.6222
rtibia 30.9415 -0 0
rfoot -14.0739 2.71123 0.194939
rtoes -14.5688 0 0
lowerback -6.07201 -0.177762 -0.441249
upperback -1.11762 -0.269562 2.52255
thorax 2.27049 -0.144043 2.82912
lowerneck -19.387 -6.10249 -13.721
upperneck 20.803 -7.92331 14.1143
head 11.0941 -3.10991 6.2542
lclavicle 1.19317e-14 -1.72976e-14 -6.74373e-32
lhumerus -44.8515 -17.7177 97.2062
lradius 27.5813 -0 0
lwrist 9.95455 0 0
lhand -13.3848 -22.3586 -0.00422282
lfingers 7.12502 -0 0
lthumb 12.7215 7.22289 -0.00666811
rclavicle 1.19317e-14 -1.72976e-14 -6.74373e-32
rhumerus -36.5258 16.5978 -85.4588
rradius 41.3722 -0 0
rwrist -21.6186 0 0
rhand -29.4995 -27.0713 -0.0167461
rfingers 7.12502 -0 0
rthumb -2.83409 -57.0287 -0.0162643
